<svg xmlns="http://www.w3.org/2000/svg" viewBox="0 0 32 32"><g data-name="Layer 2"><path d="M12,24H10a1,1,0,0,0,0,2h2a1,1,0,0,0,0-2Z"/><path d="M27,1H5A4.0045,4.0045,0,0,0,1,5V22a4.0045,4.0045,0,0,0,4,4H7a1,1,0,0,0,0-2H5a2.002,2.002,0,0,1-2-2V5A2.002,2.002,0,0,1,5,3H27a2.002,2.002,0,0,1,2,2V28.3818l-8.5527-4.2763A1,1,0,0,0,20,24H15a1,1,0,0,0,0,2h4.7642l9.7885,4.8945A1,1,0,0,0,31,30V5A4.0045,4.0045,0,0,0,27,1Z"/><path d="M26,10a1,1,0,0,0-2,0c0,3.4785-2.748,7-8,7s-8-3.5215-8-7a1,1,0,0,0-2,0c0,4.4727,3.4351,9,10,9S26,14.4727,26,10Z"/></g></svg>